<?xml version="1.0" encoding="UTF-8"?>
<svg xmlns="http://www.w3.org/2000/svg" xmlns:xlink="http://www.w3.org/1999/xlink" width="15px" height="15px" viewBox="0 0 15 15" version="1.1">
<g id="surface1">
<path style=" stroke:none;fill-rule:nonzero;fill:rgb(0%,0%,0%);fill-opacity:1;" d="M 1.8125 0.0195312 C 1.710938 0.0390625 1.613281 0.078125 1.527344 0.128906 C 1.445312 0.179688 0.25 1.359375 0.171875 1.46875 C 0.0507812 1.636719 0.0078125 1.777344 0.0078125 1.984375 C 0.0078125 2.183594 0.046875 2.328125 0.152344 2.488281 C 0.1875 2.535156 0.980469 3.335938 2.671875 5.03125 L 5.140625 7.5 L 2.664062 9.976562 C 1.074219 11.566406 0.175781 12.476562 0.148438 12.515625 C 0.046875 12.675781 0.0078125 12.808594 0.0078125 13.007812 C 0.0078125 13.21875 0.0507812 13.363281 0.171875 13.53125 C 0.25 13.640625 1.445312 14.820312 1.527344 14.871094 C 1.847656 15.054688 2.234375 15.039062 2.527344 14.820312 C 2.550781 14.800781 3.679688 13.675781 5.035156 12.324219 L 7.5 9.859375 L 9.964844 12.324219 C 11.320312 13.675781 12.449219 14.800781 12.476562 14.820312 C 12.554688 14.878906 12.628906 14.917969 12.738281 14.953125 C 12.980469 15.035156 13.242188 15.003906 13.472656 14.871094 C 13.554688 14.820312 14.75 13.640625 14.832031 13.53125 C 14.949219 13.363281 14.996094 13.222656 14.996094 13.015625 C 14.996094 12.820312 14.953125 12.671875 14.851562 12.519531 C 14.824219 12.472656 13.976562 11.621094 12.335938 9.976562 L 9.863281 7.5 L 12.332031 5.03125 C 14.917969 2.441406 14.863281 2.496094 14.929688 2.332031 C 15.019531 2.113281 15.019531 1.871094 14.9375 1.660156 C 14.875 1.503906 14.847656 1.476562 14.214844 0.839844 C 13.875 0.5 13.566406 0.199219 13.53125 0.167969 C 13.363281 0.0507812 13.222656 0.00390625 13.015625 0.00390625 C 12.820312 0.00390625 12.675781 0.046875 12.523438 0.144531 C 12.472656 0.175781 11.671875 0.96875 9.976562 2.664062 L 7.5 5.136719 L 5.023438 2.664062 C 3.320312 0.964844 2.527344 0.175781 2.480469 0.144531 C 2.402344 0.0976562 2.304688 0.0546875 2.210938 0.0273438 C 2.117188 0 1.90625 -0.00390625 1.8125 0.0195312 Z M 1.8125 0.0195312 "/>
</g>
</svg>
